<svg width="26" height="19" viewBox="0 0 26 19" fill="none" xmlns="http://www.w3.org/2000/svg">
<path fill-rule="evenodd" clip-rule="evenodd" d="M2.66136 0.0189008C1.16393 0.187124 0 1.45764 0 3V16C0 17.6569 1.34315 19 3 19H23C24.6569 19 26 17.6569 26 16V3C26 1.45763 24.8361 0.18712 23.3386 0.0189C23.2526 0.00648007 23.1636 0 23.0719 0H23H3H2.9281C2.83637 0 2.74738 0.00648031 2.66136 0.0189008ZM2 3.27324V16C2 16.5523 2.44772 17 3 17H23C23.5523 17 24 16.5523 24 16V3.27324L15.7029 10.8789C14.1736 12.2808 11.8264 12.2808 10.2971 10.8789L2 3.27324ZM22.4292 2H3.5708L11.6486 9.4046C12.4132 10.1055 13.5868 10.1055 14.3514 9.4046L22.4292 2Z" fill="#A0A3BD"/>
</svg>
