<svg width="366" height="120" viewBox="0 0 366 120" fill="none" xmlns="http://www.w3.org/2000/svg">
<g clip-path="url(#clip0_14406:3)">
<path d="M6.04392e-06 50.2064C-0.00137812 49.4218 0.235016 48.6545 0.679285 48.0014C1.12355 47.3484 1.75574 46.839 2.49586 46.5376C3.23598 46.2363 4.05079 46.1566 4.83722 46.3086C5.62364 46.4605 6.34634 46.8374 6.91389 47.3914C7.48145 47.9455 7.86836 48.6518 8.02568 49.4212C8.183 50.1905 8.10366 50.9881 7.7977 51.7133C7.49174 52.4385 6.9729 53.0585 6.30682 53.4951C5.64075 53.9316 4.85735 54.1649 4.05575 54.1656C2.98163 54.1665 1.95109 53.75 1.19059 53.0076C0.430091 52.2652 0.00186077 51.2576 6.04392e-06 50.2064Z" fill="#A939FE"/>
<path d="M13.3675 29.0539C12.4649 28.5207 11.8101 27.6642 11.5422 26.6662C11.2743 25.6682 11.4143 24.6073 11.9326 23.7087C12.4508 22.8101 13.3065 22.1446 14.3179 21.8534C15.3294 21.5623 16.4169 21.6683 17.3497 22.1492L17.5107 22.2416L32.4389 30.7561L32.6804 30.8965C33.427 31.3518 34.0018 32.0327 34.3178 32.8362C34.6339 33.6397 34.6739 34.5221 34.4319 35.3498C34.19 36.1776 33.6791 36.9057 32.9767 37.424C32.2742 37.9423 31.4184 38.2226 30.5388 38.2225C29.8673 38.222 29.2063 38.0597 28.6141 37.7498L28.4112 37.6299L13.5144 29.1361L13.3675 29.0539Z" fill="#A939FE"/>
<path d="M6.04392e-06 19.4126C-0.00137812 18.6281 0.235016 17.8607 0.679285 17.2077C1.12355 16.5546 1.75574 16.0452 2.49586 15.7439C3.23598 15.4426 4.05079 15.3628 4.83722 15.5148C5.62364 15.6668 6.34634 16.0437 6.91389 16.5977C7.48145 17.1518 7.86836 17.8581 8.02568 18.6274C8.183 19.3967 8.10366 20.1944 7.7977 20.9196C7.49174 21.6448 6.9729 22.2648 6.30682 22.7013C5.64075 23.1378 4.85735 23.3712 4.05575 23.3719C2.98191 23.3719 1.95191 22.9551 1.19161 22.2129C0.431312 21.4707 0.00278559 20.4636 6.04392e-06 19.4126Z" fill="#A939FE"/>
<path d="M4.02085e-06 34.6811C-0.0010125 33.975 0.190729 33.2815 0.555392 32.6723C0.920055 32.0632 1.4444 31.5604 2.07417 31.216C2.70395 30.8717 3.41629 30.6983 4.1375 30.7138C4.85871 30.7293 5.5626 30.9331 6.17635 31.3041L19.5718 38.9554C20.4999 39.4841 21.1754 40.3519 21.4497 41.3681C21.7241 42.3842 21.5747 43.4653 21.0346 44.3737C20.4944 45.282 19.6077 45.9432 18.5695 46.2117C17.5313 46.4801 16.4267 46.334 15.4986 45.8053L15.3901 45.7402L2.12761 38.1608C1.48637 37.8213 0.950409 37.319 0.576029 36.7066C0.20165 36.0943 0.0026735 35.3946 4.02085e-06 34.6811Z" fill="#A939FE"/>
<path d="M57.9237 32.9035V87.0177C57.9244 87.8402 57.705 88.6485 57.2876 89.3623C56.8701 90.0761 56.2691 90.6706 55.5442 91.0866L7.30572 119.318H7.28123C6.55224 119.745 5.72075 119.976 4.87129 119.986C4.02184 119.997 3.18468 119.787 2.44493 119.378C1.70518 118.969 1.0892 118.376 0.659609 117.659C0.230015 116.941 0.00211995 116.126 -0.000910759 115.294V65.2316C-0.00191154 64.4605 0.191011 63.7009 0.560837 63.02C0.930662 62.3391 1.46602 61.7577 2.11969 61.3272L2.20718 61.2724L2.51512 61.0874H2.54661L47.4257 34.7153L47.6147 34.6023L48.584 34.0337L47.5342 33.4412C47.4938 33.4157 47.4517 33.3928 47.4082 33.3727L2.16168 7.46983H2.13019C1.32643 7.05616 0.688104 6.39003 0.317776 5.57849C-0.052551 4.76695 -0.133372 3.85712 0.0883018 2.99521C0.309975 2.13329 0.821271 1.36934 1.54003 0.826119C2.25878 0.282894 3.14326 -0.0080601 4.05133 1.09113e-05C4.82061 -0.00335684 5.57433 0.212003 6.22092 0.619927L6.25242 0.640477L55.3622 28.7011L55.6037 28.8381C56.3114 29.267 56.8959 29.8653 57.3018 30.5766C57.7077 31.288 57.9218 32.0888 57.9237 32.9035Z" fill="#A939FE"/>
<path d="M108.63 40.5514C111.43 40.5514 113.619 41.2924 115.198 42.7742C116.778 44.2561 117.571 46.3236 117.578 48.9768C117.586 50.3383 117.279 51.6839 116.679 52.9121C116.085 54.1283 115.16 55.1605 114.005 55.8952C112.708 56.6986 111.214 57.148 109.68 57.1967L109.428 56.2172C110.655 56.2166 111.877 56.3896 113.053 56.7309C114.219 57.0661 115.304 57.6237 116.248 58.3715C117.209 59.133 117.986 60.0933 118.523 61.1833C119.123 62.4621 119.414 63.8592 119.373 65.2659C119.411 66.7699 119.113 68.2639 118.498 69.643C117.961 70.8078 117.148 71.8305 116.126 72.6261C115.125 73.3937 113.978 73.9595 112.752 74.2906C111.475 74.6368 110.155 74.8096 108.83 74.8044H95.3887C95.1877 74.8106 94.9877 74.7743 94.8023 74.6981C94.6169 74.6218 94.4505 74.5074 94.3144 74.3626C94.0391 74.0886 93.8856 73.7193 93.8875 73.3351V42.0173C93.8856 41.6331 94.0391 41.2638 94.3144 40.9898C94.4508 40.8456 94.6174 40.7318 94.8028 40.6562C94.9881 40.5805 95.188 40.5448 95.3887 40.5514H108.63ZM108.179 43.4969H96.4875L97.0859 42.5653V56.4055L96.5365 55.6726H108.231C109.851 55.6834 111.414 55.0893 112.602 54.0115C113.785 52.9338 114.376 51.3355 114.376 49.2166C114.376 47.4561 113.835 46.0622 112.752 45.0347C111.67 44.0072 110.145 43.4946 108.179 43.4969ZM108.578 58.6557H96.8374L97.0859 58.3132V72.3555L96.7849 71.9137H108.63C110.793 71.9137 112.591 71.384 114.026 70.3245C115.461 69.2651 116.178 67.5732 116.178 65.2488C116.178 63.6185 115.828 62.3147 115.128 61.3375C114.445 60.3703 113.465 59.6419 112.329 59.2585C111.124 58.8436 109.855 58.6362 108.578 58.6455V58.6557Z" fill="#A939FE"/>
<path d="M146.406 49.7954C146.606 49.7887 146.806 49.8245 146.992 49.9001C147.177 49.9757 147.344 50.0895 147.48 50.2338C147.761 50.5234 147.913 50.91 147.903 51.3092V73.3179C147.895 73.7043 147.734 74.0725 147.455 74.3461C147.176 74.6197 146.8 74.7776 146.406 74.7872C146.205 74.7937 146.004 74.7604 145.816 74.6895C145.628 74.6185 145.457 74.5113 145.312 74.3742C145.168 74.2371 145.053 74.073 144.974 73.8915C144.896 73.71 144.855 73.515 144.856 73.3179V67.4955L145.755 67.153C145.732 68.1224 145.466 69.0714 144.981 69.917C144.438 70.9127 143.719 71.8066 142.857 72.5576C141.92 73.3806 140.847 74.0419 139.683 74.5132C138.426 75.0271 137.074 75.2847 135.712 75.2702C133.576 75.2974 131.481 74.7012 129.693 73.5577C127.886 72.3914 126.436 70.769 125.494 68.8621C124.454 66.7764 123.931 64.48 123.968 62.1594C123.919 59.8284 124.451 57.5207 125.518 55.4363C126.479 53.575 127.929 51.9971 129.717 50.864C131.191 49.9625 132.858 49.4091 134.588 49.2474C136.318 49.0857 138.062 49.3202 139.683 49.9324C140.893 50.3962 142.004 51.0769 142.959 51.9394C143.87 52.7619 144.608 53.7509 145.132 54.8506C145.641 55.9141 145.905 57.0739 145.905 58.2482L144.873 57.5392V51.3092C144.865 50.9096 145.018 50.523 145.3 50.2338C145.443 50.0891 145.615 49.9753 145.805 49.8998C145.996 49.8243 146.2 49.7887 146.406 49.7954ZM136.013 72.537C137.681 72.5647 139.319 72.0953 140.709 71.191C142.107 70.2588 143.22 68.9735 143.932 67.4715C144.733 65.8134 145.136 63.9972 145.107 62.1629C145.132 60.3774 144.729 58.611 143.932 57.0049C143.209 55.5239 142.097 54.2579 140.709 53.3368C139.319 52.4325 137.681 51.9631 136.013 51.9908C134.359 51.9682 132.736 52.4194 131.341 53.2888C129.941 54.1707 128.817 55.414 128.094 56.8816C127.284 58.5274 126.881 60.3366 126.918 62.1629C126.893 63.995 127.289 65.8092 128.076 67.4715C128.778 68.9785 129.894 70.265 131.299 71.1876C132.697 72.0896 134.339 72.5597 136.013 72.537Z" fill="#A939FE"/>
<path d="M159.049 73.3179C159.038 73.7043 158.877 74.0721 158.597 74.3454C158.318 74.6187 157.942 74.7769 157.548 74.7872C157.347 74.7934 157.147 74.7572 156.961 74.6809C156.776 74.6047 156.609 74.4903 156.473 74.3454C156.199 74.0711 156.047 73.7017 156.05 73.3179V40.0719C156.059 39.6856 156.219 39.3174 156.498 39.0438C156.777 38.7702 157.153 38.6122 157.548 38.6026C157.749 38.5964 157.949 38.6327 158.134 38.7089C158.319 38.7852 158.486 38.8996 158.622 39.0445C158.897 39.3184 159.051 39.6877 159.049 40.0719V73.3179Z" fill="#A939FE"/>
<path d="M178.236 48.8638C179.786 48.8471 181.331 49.0278 182.834 49.4015C184.007 49.6719 185.111 50.1717 186.081 50.8708C186.879 51.4907 187.282 52.1894 187.282 52.9737C187.281 53.4309 187.131 53.8759 186.855 54.2444C186.719 54.4356 186.535 54.5897 186.322 54.6921C186.108 54.7946 185.871 54.8421 185.633 54.83C185.239 54.8485 184.848 54.7558 184.507 54.5629C184.217 54.3802 183.95 54.1665 183.709 53.9259C183.402 53.6438 183.057 53.4052 182.683 53.2169C182.125 52.9735 181.537 52.8008 180.934 52.7031C180.176 52.5573 179.406 52.4839 178.635 52.484C176.946 52.4549 175.284 52.8955 173.841 53.7546C172.456 54.5892 171.325 55.7719 170.565 57.1796C169.764 58.6888 169.361 60.37 169.393 62.0704C169.362 63.7679 169.756 65.4471 170.541 66.9612C171.273 68.3633 172.378 69.5464 173.739 70.3862C175.161 71.2515 176.81 71.6941 178.484 71.6603C179.41 71.6834 180.336 71.5843 181.235 71.3657C181.843 71.2056 182.431 70.9757 182.984 70.6807C183.489 70.4238 183.951 70.0948 184.356 69.7046C184.522 69.5393 184.721 69.4101 184.941 69.3257C185.161 69.2413 185.397 69.2035 185.633 69.2148C185.885 69.1968 186.138 69.236 186.371 69.3292C186.605 69.4225 186.814 69.5674 186.981 69.7526C187.287 70.1256 187.447 70.5931 187.432 71.0712C187.432 71.6911 187.012 72.3281 186.183 72.9789C185.169 73.7203 184.026 74.2761 182.809 74.6194C181.246 75.0784 179.62 75.3002 177.987 75.277C175.647 75.3299 173.341 74.7274 171.339 73.5406C169.445 72.3888 167.915 70.7455 166.919 68.7936C165.85 66.7088 165.31 64.4027 165.344 62.0704C165.308 59.74 165.866 57.4375 166.968 55.3712C168.032 53.3602 169.653 51.6831 171.646 50.5322C173.639 49.3814 175.923 48.8031 178.236 48.8638Z" fill="#A939FE"/>
<path d="M216.96 62.0704C217.003 64.4423 216.417 66.7847 215.259 68.8689C214.403 70.3252 213.262 71.6021 211.902 72.6265C210.541 73.6509 208.988 74.4027 207.33 74.8388C205.673 75.2749 203.944 75.3869 202.242 75.1682C200.54 74.9496 198.899 74.4046 197.412 73.5645C195.458 72.4313 193.846 70.811 192.741 68.8689C191.61 66.7737 191.019 64.44 191.019 62.0704C191.019 59.7008 191.61 57.3671 192.741 55.2719C193.851 53.3055 195.486 51.671 197.471 50.5425C199.456 49.4139 201.717 48.8338 204.012 48.8638C206.306 48.8226 208.567 49.3983 210.55 50.5282C212.532 51.6582 214.16 53.299 215.255 55.2719C216.415 57.3554 217.003 59.698 216.96 62.0704ZM212.96 62.0704C212.999 60.3452 212.596 58.6378 211.787 57.1042C211.042 55.7248 209.939 54.5614 208.589 53.7306C207.214 52.9151 205.637 52.4839 204.029 52.4839C202.422 52.4839 200.845 52.9151 199.47 53.7306C198.109 54.5551 196.996 55.7195 196.247 57.1042C195.473 58.6453 195.071 60.3396 195.071 62.0567C195.071 63.7738 195.473 65.468 196.247 67.0092C196.99 68.4052 198.103 69.5798 199.47 70.4101C200.845 71.2257 202.422 71.6569 204.029 71.6569C205.637 71.6569 207.214 71.2257 208.589 70.4101C209.943 69.5729 211.047 68.3995 211.787 67.0092C212.592 65.4837 212.996 63.7866 212.963 62.0704H212.96Z" fill="#A939FE"/>
<path d="M235.6 48.8638C237.866 48.8638 239.648 49.3204 240.947 50.2338C242.242 51.1418 243.213 52.4249 243.722 53.9019C244.294 55.5725 244.572 57.3258 244.545 59.0873V72.7871C244.55 73.0488 244.501 73.3089 244.403 73.5523C244.304 73.7957 244.158 74.0175 243.971 74.205C243.789 74.3954 243.568 74.5463 243.323 74.6477C243.077 74.7492 242.813 74.7991 242.547 74.7941C242.276 74.8039 242.006 74.7563 241.756 74.6546C241.506 74.5529 241.282 74.3996 241.098 74.205C240.733 73.8203 240.536 73.3117 240.548 72.7871V59.1832C240.563 58.0342 240.369 56.8919 239.975 55.8096C239.61 54.8239 238.937 53.9763 238.05 53.3881C237.152 52.7854 235.953 52.484 234.453 52.484C233.113 52.4696 231.79 52.7802 230.603 53.3881C229.479 53.9552 228.517 54.7874 227.804 55.8096C227.111 56.8033 226.745 57.9803 226.754 59.1832V72.7802C226.759 73.0423 226.711 73.3028 226.612 73.5463C226.513 73.7898 226.365 74.0114 226.177 74.1982C225.991 74.3844 225.77 74.5324 225.525 74.6334C225.281 74.7345 225.018 74.7866 224.752 74.7866C224.487 74.7866 224.224 74.7345 223.979 74.6334C223.735 74.5324 223.513 74.3844 223.328 74.1982C223.142 74.0107 222.995 73.7888 222.896 73.5455C222.798 73.3021 222.749 73.042 222.754 72.7802V51.5044C222.745 51.2386 222.791 50.9736 222.89 50.7258C222.989 50.4779 223.138 50.2522 223.328 50.0625C223.514 49.8791 223.736 49.7346 223.981 49.6381C224.226 49.5415 224.489 49.4948 224.752 49.5008C225.021 49.4896 225.288 49.5338 225.538 49.6306C225.788 49.7273 226.014 49.8745 226.201 50.0625C226.386 50.2553 226.53 50.4819 226.625 50.7294C226.72 50.9769 226.764 51.2403 226.754 51.5044V54.9294L225.753 56.0048C225.955 55.0815 226.345 54.2077 226.901 53.4361C227.523 52.5518 228.282 51.7682 229.151 51.114C230.061 50.424 231.072 49.8721 232.15 49.4769C233.252 49.0678 234.422 48.86 235.6 48.8638Z" fill="#A939FE"/>
<path d="M264.782 48.8638C267.049 48.8638 268.832 49.3205 270.129 50.2338C271.424 51.1408 272.395 52.4243 272.904 53.9019C273.476 55.5723 273.755 57.3256 273.729 59.0873V72.7871C273.735 73.0492 273.686 73.3096 273.587 73.5531C273.488 73.7966 273.34 74.0183 273.152 74.205C272.965 74.3915 272.741 74.5396 272.494 74.6407C272.248 74.7418 271.983 74.7939 271.716 74.7939C271.448 74.7939 271.184 74.7418 270.937 74.6407C270.69 74.5396 270.467 74.3915 270.279 74.205C269.915 73.8203 269.717 73.3117 269.73 72.7871V59.1832C269.744 58.0342 269.55 56.8919 269.156 55.8096C268.791 54.8239 268.118 53.9763 267.231 53.3882C266.333 52.7854 265.134 52.484 263.634 52.484C262.294 52.47 260.972 52.7806 259.785 53.3882C258.66 53.9549 257.698 54.7871 256.985 55.8096C256.291 56.8026 255.925 57.98 255.935 59.1832V72.7802C255.94 73.042 255.892 73.3021 255.793 73.5454C255.695 73.7888 255.548 74.0107 255.361 74.1981C255.176 74.3844 254.955 74.5324 254.71 74.6334C254.465 74.7345 254.203 74.7865 253.937 74.7865C253.672 74.7865 253.409 74.7345 253.164 74.6334C252.92 74.5324 252.698 74.3844 252.513 74.1981C252.328 74.01 252.183 73.7877 252.087 73.5443C251.991 73.3008 251.945 73.0411 251.953 72.7802V51.5044C251.943 51.2385 251.989 50.9733 252.087 50.7253C252.186 50.4773 252.336 50.2518 252.527 50.0625C252.916 49.7052 253.43 49.5063 253.963 49.5063C254.497 49.5063 255.011 49.7052 255.4 50.0625C255.584 50.2555 255.728 50.4822 255.822 50.7297C255.916 50.9772 255.959 51.2405 255.949 51.5044V54.9294L254.948 56.0048C255.15 55.0808 255.541 54.2068 256.1 53.4361C256.719 52.5512 257.477 51.7675 258.346 51.114C259.256 50.4241 260.267 49.8722 261.345 49.4769C262.443 49.0697 263.608 48.862 264.782 48.8638Z" fill="#A939FE"/>
<path d="M292.815 75.2736C290.374 75.329 287.96 74.7562 285.816 73.6125C283.857 72.5407 282.24 70.9579 281.144 69.0402C279.998 66.9788 279.421 64.6601 279.472 62.3136C279.472 59.4777 280.046 57.0574 281.193 55.0527C282.242 53.1504 283.797 51.561 285.694 50.453C287.467 49.4141 289.495 48.8649 291.562 48.8638C293.097 48.8565 294.619 49.1391 296.045 49.6961C297.465 50.2545 298.756 51.0861 299.842 52.1415C300.97 53.2372 301.877 54.5317 302.515 55.9569C303.203 57.5333 303.56 59.2292 303.565 60.9436C303.553 61.192 303.489 61.4354 303.377 61.6586C303.265 61.8819 303.107 62.0803 302.914 62.2416C302.529 62.5783 302.03 62.7616 301.514 62.7554H281.778L280.879 59.3784H300.125L299.327 60.0634V58.9879C299.226 57.7308 298.748 56.5309 297.952 55.539C297.189 54.6008 296.22 53.8431 295.117 53.3225C294.014 52.8018 292.804 52.5316 291.58 52.5319C290.564 52.5363 289.558 52.7184 288.609 53.0696C287.616 53.4356 286.713 54.0029 285.96 54.7342C285.123 55.5666 284.484 56.5686 284.087 57.6693C283.588 59.0671 283.35 60.5419 283.388 62.0224C283.349 63.7542 283.751 65.4682 284.56 67.0092C285.315 68.4138 286.447 69.5898 287.835 70.4101C289.032 71.0598 290.35 71.4661 291.711 71.6044C293.072 71.7427 294.447 71.6102 295.754 71.215C296.543 70.9504 297.291 70.5805 297.976 70.1156C298.555 69.7214 299.091 69.2704 299.576 68.7696C299.936 68.5011 300.372 68.348 300.825 68.3312C301.056 68.3245 301.286 68.3642 301.501 68.4478C301.716 68.5315 301.911 68.6573 302.074 68.8175C302.235 68.9699 302.362 69.1526 302.448 69.3546C302.534 69.5565 302.577 69.7735 302.574 69.9923C302.561 70.292 302.477 70.5847 302.33 70.8478C302.182 71.1108 301.975 71.3373 301.724 71.5095C300.646 72.6232 299.357 73.5202 297.927 74.1502C296.332 74.8996 294.584 75.2838 292.815 75.2736Z" fill="#A939FE"/>
<path d="M320.54 48.8638C322.089 48.8471 323.634 49.0279 325.135 49.4015C326.308 49.6719 327.414 50.1717 328.386 50.8708C329.183 51.4907 329.582 52.1894 329.582 52.9737C329.583 53.4306 329.434 53.8756 329.159 54.2444C329.023 54.4361 328.839 54.5905 328.624 54.693C328.41 54.7955 328.172 54.8427 327.934 54.8301C327.541 54.8481 327.152 54.7554 326.811 54.5629C326.521 54.3794 326.253 54.1658 326.01 53.9259C325.705 53.6438 325.361 53.4052 324.988 53.2169C324.429 52.974 323.841 52.8014 323.238 52.7032C322.481 52.5573 321.711 52.4839 320.939 52.484C319.251 52.4625 317.591 52.909 316.152 53.7718C314.767 54.6049 313.636 55.788 312.88 57.1967C312.078 58.7057 311.674 60.3868 311.704 62.0875C311.671 63.7786 312.062 65.4519 312.841 66.9612C313.573 68.363 314.676 69.5461 316.036 70.3862C317.46 71.251 319.11 71.6936 320.785 71.6603C321.71 71.6837 322.634 71.5846 323.532 71.3657C324.141 71.2062 324.728 70.9763 325.282 70.6807C325.787 70.4238 326.25 70.0948 326.657 69.7046C326.822 69.5392 327.02 69.4099 327.24 69.3255C327.46 69.241 327.695 69.2033 327.931 69.2148C328.183 69.1968 328.436 69.2359 328.67 69.3292C328.905 69.4224 329.114 69.5673 329.281 69.7526C329.585 70.1267 329.743 70.5937 329.729 71.0712C329.729 71.6922 329.313 72.3281 328.48 72.9789C327.467 73.7217 326.324 74.2777 325.107 74.6194C323.543 75.0784 321.917 75.3002 320.285 75.277C317.945 75.3301 315.638 74.7276 313.636 73.5406C311.741 72.3909 310.21 70.7487 309.213 68.797C308.144 66.7122 307.604 64.4061 307.638 62.0738C307.601 59.7429 308.161 57.4401 309.265 55.3746C310.329 53.3636 311.951 51.6866 313.943 50.5357C315.936 49.3848 318.22 48.8066 320.533 48.8672L320.54 48.8638Z" fill="#A939FE"/>
<path d="M333.991 49.6618H345.735C345.982 49.655 346.227 49.6994 346.455 49.7921C346.683 49.8848 346.889 50.0236 347.058 50.1995C347.23 50.3745 347.365 50.5811 347.455 50.8074C347.545 51.0338 347.589 51.2753 347.583 51.5181C347.587 51.7504 347.542 51.9811 347.452 52.196C347.362 52.4109 347.228 52.6056 347.058 52.7682C346.884 52.9365 346.678 53.0685 346.45 53.1562C346.223 53.2439 345.98 53.2855 345.735 53.2785H333.991C333.745 53.2793 333.501 53.2321 333.273 53.1398C333.046 53.0475 332.839 52.9119 332.665 52.7408C332.484 52.58 332.339 52.3839 332.241 52.165C332.142 51.9462 332.091 51.7095 332.091 51.4702C332.086 51.2266 332.134 50.9847 332.233 50.7612C332.332 50.5377 332.48 50.3379 332.665 50.1755C333.023 49.8432 333.498 49.6591 333.991 49.6618ZM339.24 43.0105C339.503 43.0035 339.764 43.0521 340.006 43.1532C340.248 43.2543 340.464 43.4055 340.64 43.5962C341.005 43.9809 341.202 44.4895 341.19 45.0141V68.5881C341.151 69.1945 341.271 69.8006 341.54 70.3485C341.744 70.7134 342.07 70.9987 342.463 71.1568C342.822 71.2985 343.204 71.3728 343.59 71.376C343.89 71.382 344.187 71.3236 344.462 71.2047C344.737 71.0862 345.036 71.0278 345.336 71.0335C345.516 71.0403 345.693 71.0855 345.853 71.166C346.013 71.2464 346.153 71.3602 346.264 71.4993C346.554 71.8325 346.705 72.2605 346.687 72.698C346.687 73.2848 346.337 73.7814 345.637 74.1879C344.927 74.5988 344.115 74.8108 343.289 74.8009C342.82 74.8009 342.239 74.7667 341.564 74.7016C340.852 74.6276 340.164 74.4107 339.541 74.0646C338.815 73.6462 338.232 73.0248 337.869 72.2802C337.418 71.4468 337.193 70.2811 337.193 68.7833V45.0141C337.193 44.7509 337.246 44.4902 337.348 44.2469C337.451 44.0036 337.602 43.7825 337.792 43.5964C337.982 43.4102 338.208 43.2627 338.457 43.1621C338.705 43.0616 338.972 43.0101 339.24 43.0105Z" fill="#A939FE"/>
</g>
<defs>
<clipPath id="clip0_14406:3">
<rect width="366" height="120" fill="white"/>
</clipPath>
</defs>
</svg>
